<svg width="1200" xmlns:xlink="http://www.w3.org/1999/xlink" height="800" xmlns="http://www.w3.org/2000/svg" version="1.1"><g><g class="x axis" transform="translate(0,780)" style="stroke-width: 1px; font-size: 10px; font-family: Arial, Helvetica;"><g class="tick" transform="translate(0,0)" style="opacity: 1;"><line y2="-780" x2="0" style="shape-rendering: crispEdges; fill: none; stroke: rgb(204, 204, 204);"></line><text y="3" x="0" dy=".71em" style="text-anchor: middle;">1</text></g><g class="tick" transform="translate(171.42857142857142,0)" style="opacity: 1;"><line y2="-780" x2="0" style="shape-rendering: crispEdges; fill: none; stroke: rgb(204, 204, 204);"></line><text y="3" x="0" dy=".71em" style="text-anchor: middle;">2</text></g><g class="tick" transform="translate(342.85714285714283,0)" style="opacity: 1;"><line y2="-780" x2="0" style="shape-rendering: crispEdges; fill: none; stroke: rgb(204, 204, 204);"></line><text y="3" x="0" dy=".71em" style="text-anchor: middle;">3</text></g><g class="tick" transform="translate(514.2857142857142,0)" style="opacity: 1;"><line y2="-780" x2="0" style="shape-rendering: crispEdges; fill: none; stroke: rgb(204, 204, 204);"></line><text y="3" x="0" dy=".71em" style="text-anchor: middle;">4</text></g><g class="tick" transform="translate(685.7142857142857,0)" style="opacity: 1;"><line y2="-780" x2="0" style="shape-rendering: crispEdges; fill: none; stroke: rgb(204, 204, 204);"></line><text y="3" x="0" dy=".71em" style="text-anchor: middle;">5</text></g><g class="tick" transform="translate(857.142857142857,0)" style="opacity: 1;"><line y2="-780" x2="0" style="shape-rendering: crispEdges; fill: none; stroke: rgb(204, 204, 204);"></line><text y="3" x="0" dy=".71em" style="text-anchor: middle;">6</text></g><g class="tick" transform="translate(1028.5714285714284,0)" style="opacity: 1;"><line y2="-780" x2="0" style="shape-rendering: crispEdges; fill: none; stroke: rgb(204, 204, 204);"></line><text y="3" x="0" dy=".71em" style="text-anchor: middle;">7</text></g><g class="tick" transform="translate(1200,0)" style="opacity: 1;"><line y2="-780" x2="0" style="shape-rendering: crispEdges; fill: none; stroke: rgb(204, 204, 204);"></line><text y="3" x="0" dy=".71em" style="text-anchor: middle;">8</text></g><path class="domain" d="M0,-780V0H1200V-780" style="shape-rendering: crispEdges; fill: none; stroke: rgb(204, 204, 204);"></path></g><path class="layer" d="M0,691.9018215498611L28.57142857142857,693.4905320572193C57.14285714285714,695.0792425645775,114.28571428571428,698.256663579294,171.42857142857142,702.2100442523413C228.57142857142856,706.1634249253884,285.71428571428567,710.8927652567664,342.8571428571428,709.8793351857569C399.99999999999994,708.8659051147472,457.14285714285705,702.1097046413502,514.2857142857142,701.7869455593288C571.4285714285713,701.4641864773077,628.5714285714284,707.5748687866626,685.7142857142856,720.4122157044355C742.8571428571428,733.2495626222085,799.9999999999999,752.8135741483997,857.1428571428569,759.9633374498302C914.2857142857141,767.1131007512606,971.4285714285712,761.8486158279304,1028.5714285714284,757.741381084697C1085.7142857142856,753.6341463414634,1142.8571428571427,750.6841617783266,1171.4285714285713,749.2091694967584L1200,747.7341772151899L1200,748.7341772151899L1171.4285714285713,750.2091694967582C1142.8571428571427,751.6841617783266,1085.7142857142856,754.6341463414634,1028.5714285714284,758.741381084697C971.4285714285712,762.8486158279304,914.2857142857141,768.1131007512606,857.1428571428569,766.3521405783678C799.9999999999999,764.5911804054749,742.8571428571428,755.804775136359,685.7142857142857,747.9749408253576C628.5714285714284,740.1451065143563,571.4285714285713,733.2718431614695,514.2857142857142,732.2032263044149C457.14285714285705,731.1346094473603,399.99999999999994,735.8706390861378,342.8571428571428,735.7401975918494C285.71428571428567,735.609756097561,228.57142857142856,730.6128434702068,171.42857142857142,726.2346917772976C114.28571428571428,721.8565400843881,57.14285714285714,718.0971493259236,28.57142857142857,716.2174539466914L0,714.3377585674591Z" title="Dan BARRIOS-ONEILL" style="fill-opacity: 0.9; fill: rgb(191, 105, 105);"></path><path class="layer" d="M0,200.75949367088606L28.57142857142857,200.9635175465678C57.14285714285714,201.16754142224963,114.28571428571428,201.57558917361322,171.42857142857142,202.30137902644844C228.57142857142856,203.02716887928372,285.71428571428567,204.07070083359062,342.8571428571428,204.77976741792733C399.99999999999994,205.48883400226407,457.14285714285705,205.86343521663065,514.2857142857142,206.23970875784707C571.4285714285713,206.6159822990635,628.5714285714284,206.99392816712975,685.7142857142856,192.57178141401664C742.8571428571428,178.14963466090356,799.9999999999999,148.9273952866111,857.1428571428569,159.91625501698056C914.2857142857141,170.90511474735,971.4285714285712,222.10507358238138,1028.5714285714284,244.78182566635792C1085.7142857142856,267.4585777503344,1142.8571428571427,261.6121230832561,1171.4285714285713,258.68889574971695L1200,255.76566841617785L1200,361.9450447669034L1171.4285714285713,364.4535350416795C1142.8571428571427,366.96202531645565,1085.7142857142856,371.979005866008,1028.5714285714284,348.3423381702171C971.4285714285712,324.7056704744262,914.2857142857141,272.4153545332921,857.1428571428569,259.59027992178653C799.9999999999999,246.76520531028092,742.8571428571428,273.4053720284038,685.7142857142857,286.5231038386333C628.5714285714284,299.6408356488628,571.4285714285713,299.2361325511989,514.2857142857142,298.6290779047031C457.14285714285705,298.02202325820724,399.99999999999994,297.2126170628795,342.8571428571428,295.9550272717917C285.71428571428567,294.6974374807039,228.57142857142856,292.9916640938561,171.42857142857142,291.6872491509725C114.28571428571428,290.38283420808887,57.14285714285714,289.4797777091694,28.57142857142857,289.02824945970974L0,288.57672121025Z" title="Robbie BUTLER" style="fill-opacity: 0.9; fill: rgb(191, 137, 105);"></path><path class="layer" d="M0,607.7770916949676L28.57142857142857,609.2052588247401C57.14285714285714,610.6334259545126,114.28571428571428,613.4897602140578,171.42857142857142,616.5400843881856C228.57142857142856,619.5904085623134,285.71428571428567,622.8347226510239,342.8571428571428,625.9887310898425C399.99999999999994,629.142739528661,457.14285714285705,632.2064423175876,514.2857142857142,634.4155860862405C571.4285714285713,636.6247298548934,628.5714285714284,637.9793146032725,685.7142857142856,647.5550581455182C742.8571428571428,657.1308016877637,799.9999999999999,674.9277040238757,857.1428571428569,694.4660646290007C914.2857142857141,714.0044252341257,971.4285714285712,735.2842441082638,1028.5714285714284,744.4491612637645C1085.7142857142856,753.6140784192652,1142.8571428571427,750.6640938561284,1171.4285714285713,749.18910157456L1200,747.7141092929917L1200,748.7141092929917L1171.4285714285713,750.18910157456C1142.8571428571427,751.6640938561284,1085.7142857142856,754.6140784192652,1028.5714285714284,758.7012452403005C971.4285714285712,762.7884120613357,914.2857142857141,768.0127611402696,857.1428571428569,760.6963311721726C799.9999999999999,753.3799012040754,742.8571428571428,733.5226921889472,685.7142857142857,720.5387465267057C628.5714285714284,707.5548008644644,571.4285714285713,701.4441185551095,514.2857142857142,696.7264845116806C457.14285714285705,692.0088504682515,399.99999999999994,688.6842646907481,342.8571428571428,685.336266337347C285.71428571428567,681.9882679839457,228.57142857142856,678.6168570546465,171.42857142857142,675.3825769270351C114.28571428571428,672.1482967994236,57.14285714285714,669.0511474735,28.57142857142857,667.5025728105383L0,665.9539981475764Z" title="Pat CATNEY" style="fill-opacity: 0.9; fill: rgb(191, 169, 105);"></path><path class="layer" d="M0,373.6245754862612L28.57142857142857,374.23330245960693C57.14285714285714,374.8420294329526,114.28571428571428,376.05948337964395,171.42857142857142,377.63147061850367C228.57142857142856,379.2034578573634,285.71428571428567,381.12997838839146,342.8571428571428,396.6291036328085C399.99999999999994,412.12822887722547,457.14285714285705,441.19995883503134,514.2857142857142,469.95227436451574C571.4285714285713,498.70458989400015,628.5714285714284,527.137490995163,685.7142857142856,549.7975198106411C742.8571428571428,572.4575486261192,799.9999999999999,589.3447051559123,857.1428571428569,608.3139086137696C914.2857142857141,627.283112071627,971.4285714285712,648.3343624575487,1028.5714285714284,657.3114129875476C1085.7142857142856,666.2884635175466,1142.8571428571427,663.191314191623,1171.4285714285713,661.6427395286611L1200,660.0941648656993L1200,748.5736338376042L1171.4285714285713,750.0486261191726C1142.8571428571427,751.5236184007409,1085.7142857142856,754.4736029638777,1028.5714285714284,745.1620870639085C971.4285714285712,735.8505711639395,914.2857142857141,714.2775548008644,857.1428571428569,694.592595451271C799.9999999999999,674.9076361016774,742.8571428571428,657.1107337655656,685.7142857142857,633.9824534321292C628.5714285714284,610.8541730986931,571.4285714285713,582.3945147679325,514.2857142857142,553.5953740866523C457.14285714285705,524.796233405372,399.99999999999994,495.6576103735721,342.8571428571428,479.9377379849748C285.71428571428567,464.21786559637746,228.57142857142856,461.9167438509828,171.42857142857142,460.10394154574453C114.28571428571428,458.2911392405063,57.14285714285714,456.96665637542446,28.57142857142857,456.30441494288357L0,455.6421735103427Z" title="Jonathan CRAIG" style="fill-opacity: 0.9; fill: rgb(180, 191, 105);"></path><path class="layer" d="M0,774.05989502933L28.57142857142857,774.8196974374806C57.14285714285714,775.5794998456313,114.28571428571428,777.0991046619326,171.42857142857142,777.7886693423897C228.57142857142856,778.4782340228464,285.71428571428567,778.3377585674591,342.8571428571428,778.1738705361736C399.99999999999994,778.0099825048883,457.14285714285705,777.822681897705,514.2857142857142,777.5500926211794C571.4285714285713,777.2775033446536,628.5714285714284,776.9196253987856,685.7142857142856,776.0332921683646C742.8571428571428,775.1469589379437,799.9999999999999,773.73217042297,857.1428571428569,770.3925337038179C914.2857142857141,767.052896984666,971.4285714285712,761.7884120613357,1028.5714285714284,757.6811773181023C1085.7142857142856,753.5739425748687,1142.8571428571427,750.6239580117319,1171.4285714285713,749.1489657301636L1200,747.6739734485952L1200,748.6739734485952L1171.4285714285713,750.1489657301636C1142.8571428571427,751.6239580117319,1085.7142857142856,754.5739425748687,1028.5714285714284,758.6811773181023C971.4285714285712,762.7884120613357,914.2857142857141,768.052896984666,857.1428571428569,771.392533703818C799.9999999999999,774.7321704229701,742.8571428571428,776.1469589379437,685.7142857142857,777.0332921683646C628.5714285714284,777.9196253987856,571.4285714285713,778.2775033446537,514.2857142857142,778.5500926211794C457.14285714285705,778.822681897705,399.99999999999994,779.0099825048883,342.8571428571428,779.1738705361736C285.71428571428567,779.337758567459,228.57142857142856,779.4782340228464,171.42857142857142,779.1939384583718C114.28571428571428,778.9096428938972,57.14285714285714,778.2005763095605,28.57142857142857,777.846043017392L0,777.4915097252239Z" title="Peter DYNES" style="fill-opacity: 0.9; fill: rgb(148, 191, 105);"></path><path class="layer" d="M0,0L28.57142857142857,0.060203766594630295C57.14285714285714,0.12040753318926059,114.28571428571428,0.24081506637852118,171.42857142857142,0.37125656066689317C228.57142857142856,0.5016980549552651,285.71428571428567,0.6421735103427484,342.8571428571428,0.8027168879284166C399.99999999999994,0.9632602655140847,457.14285714285705,1.1438715652979377,514.2857142857142,1.4097715344241994C571.4285714285713,1.6756715035504612,628.5714285714284,2.0268601420191317,685.7142857142856,2.9065040650406404C742.8571428571428,3.786147988062149,799.9999999999999,5.194247195636497,857.1428571428569,31.498276216939377C914.2857142857141,57.802305238242255,971.4285714285712,109.00226407327366,1028.5714285714284,113.10949881650718C1085.7142857142856,117.21673355974067,1142.8571428571427,74.23124421117627,1171.4285714285713,52.738499536894075L1200,31.245754862611875L1200,144.32849644952148L1171.4285714285713,165.82124112380365C1142.8571428571427,187.31398579808584,1085.7142857142856,230.2994751466502,1028.5714285714284,226.1922404034167C971.4285714285712,222.08500566018316,914.2857142857141,170.88504682515173,857.1428571428569,144.07597509519394C799.9999999999999,117.26690336523612,742.8571428571428,114.8487187403519,685.7142857142857,113.45065349387667C628.5714285714284,112.05258824740143,571.4285714285713,111.67464237933517,514.2857142857142,111.35188329731398C457.14285714285705,111.0291242152928,399.99999999999994,110.76155191931669,342.8571428571428,110.27657713285996C285.71428571428567,109.79160234640324,228.57142857142856,109.0892250694659,171.42857142857142,108.61428424410826C114.28571428571428,108.13934341875063,57.14285714285714,107.8918390449727,28.57142857142857,107.76808685808373L0,107.64433467119477Z" title="Paul GIVAN" style="fill-opacity: 0.9; fill: rgb(116, 191, 105);"></path><path class="layer" d="M0,288.5967891324483L28.57142857142857,289.04831738190796C57.14285714285714,289.4998456313677,114.28571428571428,290.4029021302871,171.42857142857142,291.7073170731707C228.57142857142856,293.01173201605434,285.71428571428567,294.71750540290213,342.8571428571428,295.97509519398994C399.99999999999994,297.23268498507775,457.14285714285705,298.04209118040546,514.2857142857142,298.6491458269013C571.4285714285713,299.25620047339714,628.5714285714284,299.660903571061,685.7142857142856,335.7764742204384C742.8571428571428,371.8920448698158,799.9999999999999,443.7184830709066,857.1428571428569,490.03023052382423C914.2857142857141,536.3419779767418,971.4285714285712,557.139034681486,1028.5714285714284,565.9187506432027C1085.7142857142856,574.6984666049192,1142.8571428571427,571.460841823608,1171.4285714285713,569.8420294329525L1200,568.2232170422969L1200,660.0740969435011L1171.4285714285713,661.622671606463C1142.8571428571427,663.1712462694247,1085.7142857142856,666.2683955953484,1028.5714285714284,657.2913450653494C971.4285714285712,648.3142945353504,914.2857142857141,627.2630441494288,857.1428571428569,580.1954049603787C799.9999999999999,533.1277657713285,742.8571428571428,460.0437377791499,685.7142857142857,423.28599361942986C628.5714285714284,386.5282494597098,571.4285714285713,386.0967891324483,514.2857142857142,385.44290933415664C457.14285714285705,384.789029535865,399.99999999999994,383.9127302665432,342.8571428571428,382.5113203663682C285.71428571428567,381.10991046619324,228.57142857142856,379.1833899351651,171.42857142857142,377.61140269630545C114.28571428571428,376.03941545744567,57.14285714285714,374.8219615107543,28.57142857142857,374.21323453740865L0,373.60450756406294Z" title="Brenda HALE" style="fill-opacity: 0.9; fill: rgb(105, 191, 126);"></path><path class="layer" d="M0,751.7644334671195L28.57142857142857,753.7511577647422C57.14285714285714,755.7378820623649,114.28571428571428,759.7113306576103,171.42857142857142,764.1101162910363C228.57142857142856,768.5089019244623,285.71428571428567,773.3330245960688,342.8571428571428,775.6514356282803C399.99999999999994,777.9698466604918,457.14285714285705,777.7825460533086,514.2857142857142,777.5099567767828C571.4285714285713,777.2373675002573,628.5714285714284,776.8794895543892,685.7142857142856,775.9931563239683C742.8571428571428,775.1068230935474,799.9999999999999,773.6920345785736,857.1428571428569,770.3490532057219C914.2857142857141,767.0060718328702,971.4285714285712,761.7348976021406,1028.5714285714284,757.6243182052074C1085.7142857142856,753.5137388082741,1142.8571428571427,750.5637542451373,1171.4285714285713,749.088761963569L1200,747.6137696820006L1200,748.6137696820006L1171.4285714285713,750.0887619635689C1142.8571428571427,751.5637542451373,1085.7142857142856,754.5137388082741,1028.5714285714284,758.6243182052073C971.4285714285712,762.7348976021406,914.2857142857141,768.0060718328702,857.1428571428569,771.3490532057219C799.9999999999999,774.6920345785736,742.8571428571428,776.1068230935473,685.7142857142857,776.9931563239682C628.5714285714284,777.8794895543891,571.4285714285713,778.2373675002572,514.2857142857142,778.5099567767828C457.14285714285705,778.7825460533086,399.99999999999994,778.9698466604918,342.8571428571428,779.1337346917772C285.71428571428567,779.2976227230627,228.57142857142856,779.43809817845,171.42857142857142,777.4413399197283C114.28571428571428,775.4445816610064,57.14285714285714,771.3105896881752,28.57142857142857,769.2435937017597L0,767.1765977153442Z" title="Brian HIGGINSON" style="fill-opacity: 0.9; fill: rgb(105, 191, 159);"></path><path class="layer" d="M0,767.1966656375424L28.57142857142857,769.1036842646907C57.14285714285714,771.010702891839,114.28571428571428,774.8247401461356,171.42857142857142,776.6615210455902C228.57142857142856,778.4983019450448,285.71428571428567,778.3578264896573,342.8571428571428,778.1972831120717C399.99999999999994,778.036739734486,457.14285714285705,777.8561284347021,514.2857142857142,777.5902284655758C571.4285714285713,777.3243284964495,628.5714285714284,776.9731398579809,685.7142857142856,776.0934959349594C742.8571428571428,775.2138520119379,799.9999999999999,773.8057528043635,857.1428571428569,770.4694607389112C914.2857142857141,767.1331686734588,971.4285714285712,761.8686837501286,1028.5714285714284,757.7614490068951C1085.7142857142856,753.6542142636616,1142.8571428571427,750.7042297005248,1171.4285714285713,749.2292374189565L1200,747.7542451373881L1200,748.7542451373881L1171.4285714285713,750.2292374189565C1142.8571428571427,751.7042297005248,1085.7142857142856,754.6542142636616,1028.5714285714284,758.7614490068952C971.4285714285712,762.8686837501286,914.2857142857141,768.1331686734588,857.1428571428569,771.4694607389112C799.9999999999999,774.8057528043635,742.8571428571428,776.2138520119378,685.7142857142857,777.0934959349593C628.5714285714284,777.9731398579809,571.4285714285713,778.3243284964494,514.2857142857142,778.5902284655758C457.14285714285705,778.856128434702,399.99999999999994,779.036739734486,342.8571428571428,779.1972831120715C285.71428571428567,779.3578264896573,228.57142857142856,779.4983019450447,171.42857142857142,778.6353812905218C114.28571428571428,777.7724606359986,57.14285714285714,775.9061438715653,28.57142857142857,774.9729854893485L0,774.0398271071318Z" title="Jack IRWIN" style="fill-opacity: 0.9; fill: rgb(105, 191, 191);"></path><path class="layer" d="M0,533.3652361840075L28.57142857142857,534.3117731810229C57.14285714285714,535.2583101780385,114.28571428571428,537.1513841720696,171.42857142857142,539.556190182155C228.57142857142856,541.9609961922404,285.71428571428567,544.8775342183801,342.8571428571428,547.3626119172584C399.99999999999994,549.8476896161367,457.14285714285705,551.9013069877534,514.2857142857142,539.2033292168364C571.4285714285713,526.5053514459195,628.5714285714284,499.0557785324688,685.7142857142856,443.4208088916332C742.8571428571428,387.78583925079755,799.9999999999999,303.96547288257693,857.1428571428569,229.09707214160753C914.2857142857141,154.2286714006381,971.4285714285712,88.31223628691983,1028.5714285714284,75.67947926314703C1085.7142857142856,63.04672223937423,1142.8571428571427,103.6976433055469,1171.4285714285713,124.02310383863323L1200,144.3485643717196L1200,255.74560049397962L1171.4285714285713,239.8183595760008C1142.8571428571427,223.89111865802198,1085.7142857142856,192.03663682206437,1028.5714285714284,202.80642173510336C971.4285714285712,213.57620664814237,914.2857142857141,266.970258310178,857.1428571428569,332.8649531748482C799.9999999999999,398.75964803951837,742.8571428571428,477.1549861068231,685.7142857142857,529.6359473088402C628.5714285714284,582.1169085108572,571.4285714285713,608.6834928475866,514.2857142857142,620.4349336214882C457.14285714285705,632.1863743953895,399.99999999999994,629.1226716064629,342.8571428571428,625.9686631676443C285.71428571428567,622.8146547288258,228.57142857142856,619.5703406401153,171.42857142857142,616.5200164659875C114.28571428571428,613.4696922918596,57.14285714285714,610.6133580323144,28.57142857142857,609.1851909025419L0,607.7570237727693Z" title="Trevor LUNN" style="fill-opacity: 0.9; fill: rgb(105, 159, 191);"></path><path class="layer" d="M0,777.5115776474221L28.57142857142857,777.6927549655243C57.14285714285714,777.8739322836266,114.28571428571428,778.2362869198312,171.42857142857142,778.3472265102397C228.57142857142856,778.4581661006482,285.71428571428567,778.3176906452608,342.8571428571428,778.1538026139755C399.99999999999994,777.9899145826901,457.14285714285705,777.8026139755068,514.2857142857142,777.5300246989812C571.4285714285713,777.2574354224555,628.5714285714284,776.8995574765873,685.7142857142856,776.0132242461664C742.8571428571428,775.1268910157455,799.9999999999999,773.7121025007718,857.1428571428569,770.3691211279202C914.2857142857141,767.0261397550684,971.4285714285712,761.7549655243388,1028.5714285714284,757.6443861274055C1085.7142857142856,753.5338067304723,1142.8571428571427,750.5838221673355,1171.4285714285713,749.1088298857671L1200,747.6338376041988L1200,748.6338376041988L1171.4285714285713,750.1088298857671C1142.8571428571427,751.5838221673355,1085.7142857142856,754.5338067304723,1028.5714285714284,758.6443861274056C971.4285714285712,762.7549655243388,914.2857142857141,768.0261397550684,857.1428571428569,771.36912112792C799.9999999999999,774.7121025007717,742.8571428571428,776.1268910157455,685.7142857142857,777.0132242461664C628.5714285714284,777.8995574765872,571.4285714285713,778.2574354224554,514.2857142857142,778.5300246989812C457.14285714285705,778.8026139755068,399.99999999999994,778.9899145826901,342.8571428571428,779.1538026139755C285.71428571428567,779.3176906452609,228.57142857142856,779.4581661006483,171.42857142857142,779.595296902336C114.28571428571428,779.7324277040238,57.14285714285714,779.8662138520119,28.57142857142857,779.933106926006L0,780Z" title="Frazer MCCAMMOND" style="fill-opacity: 0.9; fill: rgb(105, 126, 191);"></path><path class="layer" d="M0,714.3578264896573L28.57142857142857,716.2375218688895C57.14285714285714,718.1172172481218,114.28571428571428,721.8766080065864,171.42857142857142,726.2547596994957C228.57142857142856,730.632911392405,285.71428571428567,735.6298240197591,342.8571428571428,740.8341051764947C399.99999999999994,746.0383863332304,457.14285714285705,751.4500360193475,514.2857142857142,757.4425491406812C571.4285714285713,763.435062262015,628.5714285714284,770.0084388185653,685.7142857142856,772.5877328393536C742.8571428571428,775.167026860142,799.9999999999999,773.7522383451682,857.1428571428569,770.4059123186167C914.2857142857141,767.0595862920654,971.4285714285712,761.7817227539363,1028.5714285714284,757.6677987033034C1085.7142857142856,753.5538746526705,1142.8571428571427,750.6038900895337,1171.4285714285713,749.1288978079654L1200,747.653905526397L1200,748.653905526397L1171.4285714285713,750.1288978079654C1142.8571428571427,751.6038900895337,1085.7142857142856,754.5538746526705,1028.5714285714284,758.6677987033034C971.4285714285712,762.7817227539363,914.2857142857141,768.0595862920653,857.1428571428569,771.4059123186169C799.9999999999999,774.7522383451682,742.8571428571428,776.167026860142,685.7142857142857,777.0399814757641C628.5714285714284,777.9129360913862,571.4285714285713,778.2440568076566,514.2857142857142,775.6335545950396C457.14285714285705,773.0230523824225,399.99999999999994,767.470927240918,342.8571428571428,762.1729957805907C285.71428571428567,756.8750643202634,228.57142857142856,751.8313265411134,171.42857142857142,747.3996603890089C114.28571428571428,742.9679942369044,57.14285714285714,739.1483997118452,28.57142857142857,737.2386024493156L0,735.328805186786Z" title="Jacqui MCGEOUGH" style="fill-opacity: 0.9; fill: rgb(116, 105, 191);"></path><path class="layer" d="M0,735.3488731089842L28.57142857142857,737.2586703715137C57.14285714285714,739.1684676340433,114.28571428571428,742.9880621591026,171.42857142857142,747.4197283112071C228.57142857142856,751.8513944633116,285.71428571428567,756.8951322424616,342.8571428571428,762.0364309972213C399.99999999999994,767.177729751981,457.14285714285705,772.4165894823504,514.2857142857142,774.8604250283009C571.4285714285713,777.3042605742512,628.5714285714284,776.9530719357826,685.7142857142856,776.0700833590613C742.8571428571428,775.1870947823402,799.9999999999999,773.7723062673665,857.1428571428569,770.4293248945148C914.2857142857141,767.086343521663,971.4285714285712,761.8151692909335,1028.5714285714284,757.7045898940002C1085.7142857142856,753.594010497067,1142.8571428571427,750.6440259339302,1171.4285714285713,749.1690336523618L1200,747.6940413707935L1200,748.6940413707935L1171.4285714285713,750.1690336523618C1142.8571428571427,751.6440259339302,1085.7142857142856,754.594010497067,1028.5714285714284,758.7045898940003C971.4285714285712,762.8151692909335,914.2857142857141,768.086343521663,857.1428571428569,771.4293248945147C799.9999999999999,774.7723062673664,742.8571428571428,776.1870947823402,685.7142857142857,777.0700833590613C628.5714285714284,777.9530719357825,571.4285714285713,778.3042605742512,514.2857142857142,778.5601265822784C457.14285714285705,778.8159925903055,399.99999999999994,778.9765359678912,342.8571428571428,776.4780796542142C285.71428571428567,773.979623340537,228.57142857142856,768.8221673355973,171.42857142857142,764.2567150355047C114.28571428571428,759.6912627354121,57.14285714285714,755.7178141401666,28.57142857142857,753.731089842544L0,751.7443655449213Z" title="Jonny ORR" style="fill-opacity: 0.9; fill: rgb(148, 105, 191);"></path><path class="layer" d="M0,455.6622414325409L28.57142857142857,456.3244828650818C57.14285714285714,456.9867242976227,114.28571428571428,458.31120716270453,171.42857142857142,460.12400946794276C228.57142857142856,461.93681177318103,285.71428571428567,464.2379335185757,342.8571428571428,451.9128846351755C399.99999999999994,439.5878357517753,457.14285714285705,412.6366162395801,514.2857142857142,399.37673664711326C571.4285714285713,386.11685705464646,628.5714285714284,386.54831738190796,685.7142857142856,392.3446022434907C742.8571428571428,398.1408871050735,799.9999999999999,409.3019965009776,857.1428571428569,424.49843058557167C914.2857142857141,439.69486467016566,971.4285714285712,458.92662344344956,1028.5714285714284,449.17695790881953C1085.7142857142856,439.4272923741895,1142.8571428571427,400.69620253164555,1171.4285714285713,381.3306576103735L1200,361.96511268910155L1200,466.55912318616856L1171.4285714285713,485.1186065658124C1142.8571428571427,503.67808994545635,1085.7142857142856,540.7970567047443,1028.5714285714284,548.9580117320161C971.4285714285712,557.1189667592878,914.2857142857141,536.3219100545435,857.1428571428569,518.6002624266748C799.9999999999999,500.8786147988062,742.8571428571428,486.2323762478131,685.7142857142857,478.6868375012864C628.5714285714284,471.14129875475965,571.4285714285713,470.69645981269935,514.2857142857142,483.3944375836163C457.14285714285705,496.0924153545333,399.99999999999994,521.9332098384275,342.8571428571428,533.3953380673047C285.71428571428567,544.8574662961819,228.57142857142856,541.9409282700421,171.42857142857142,539.5361222599568C114.28571428571428,537.1313162498714,57.14285714285714,535.2382422558403,28.57142857142857,534.2917052588248L0,533.3451682618092Z" title="Jenny PALMER" style="fill-opacity: 0.9; fill: rgb(180, 105, 191);"></path><path class="layer" d="M0,107.66440259339299L28.57142857142857,107.78815478028194C57.14285714285714,107.91190696717092,114.28571428571428,108.15941134094885,171.42857142857142,108.63435216630646C228.57142857142856,109.10929299166408,285.71428571428567,109.81167026860138,342.8571428571428,110.2966450550581C399.99999999999994,110.7816198415148,457.14285714285705,111.0491921374909,514.2857142857142,111.37195121951211C571.4285714285713,111.69471030153332,628.5714285714284,112.07265616959963,685.7142857142856,146.91725841309042C742.8571428571428,181.76186065658123,799.9999999999999,251.07311927549654,857.1428571428569,295.167361325512C914.2857142857141,339.26160337552744,971.4285714285712,358.138828856643,1028.5714285714284,382.5046310589688C1085.7142857142856,406.87043326129464,1142.8571428571427,436.72481218483074,1171.4285714285713,451.65200164659876L1200,466.5791911083668L1200,568.2031491200987L1171.4285714285713,553.1923433158381C1142.8571428571427,538.1815375115775,1085.7142857142856,508.15992590305643,1028.5714285714284,483.53324071215394C971.4285714285712,458.9065555212514,914.2857142857141,439.67479674796743,857.1428571428569,394.5437120510445C799.9999999999999,349.4126273541216,742.8571428571428,278.3822167335597,685.7142857142857,242.67803848924558C628.5714285714284,206.9738602449315,571.4285714285713,206.59591437686524,514.2857142857142,206.21964083564882C457.14285714285705,205.84336729443243,399.99999999999994,205.46876608006588,342.8571428571428,204.75969949572914C285.71428571428567,204.05063291139243,228.57142857142856,203.00710095708553,171.42857142857142,202.28131110425028C114.28571428571428,201.55552125141503,57.14285714285714,201.14747350005143,28.57142857142857,200.94344962436963L0,200.73942574868784Z" title="Edwin POOTS" style="fill-opacity: 0.9; fill: rgb(191, 105, 169);"></path><path class="layer" d="M0,665.9740660697746L28.57142857142857,667.5226407327364C57.14285714285714,669.0712153956982,114.28571428571428,672.1683647216219,171.42857142857142,675.4026448492333C228.57142857142856,678.6369249768447,285.71428571428567,682.0083359061439,342.8571428571428,690.5338581866831C399.99999999999994,699.0593804672224,457.14285714285705,712.7390140990017,514.2857142857142,723.0154625913348C571.4285714285713,733.2919110836679,628.5714285714284,740.1651744365545,685.7142857142856,747.8049295049913C742.8571428571428,755.444684573428,799.9999999999999,763.8509313574148,857.1428571428569,765.4184676340435C914.2857142857141,766.986003910672,971.4285714285712,761.7148296799423,1028.5714285714284,757.6042502830092C1085.7142857142856,753.493670886076,1142.8571428571427,750.5436863229393,1171.4285714285713,749.0686940413708L1200,747.5937017598025L1200,748.5937017598025L1171.4285714285713,750.0686940413708C1142.8571428571427,751.5436863229393,1085.7142857142856,754.493670886076,1028.5714285714284,758.6042502830092C971.4285714285712,762.7148296799423,914.2857142857141,767.986003910672,857.1428571428569,771.3289852835237C799.9999999999999,774.6719666563754,742.8571428571428,776.0867551713492,685.7142857142857,773.3508284449932C628.5714285714284,770.6149017186374,571.4285714285713,763.7282597509519,514.2857142857142,753.4116754142225C457.14285714285705,743.095091077493,399.99999999999994,729.3485643717196,342.8571428571428,720.1106308531439C285.71428571428567,710.8726973345682,228.57142857142856,706.1433570031902,171.42857142857142,702.189976330143C114.28571428571428,698.2365956570958,57.14285714285714,695.0591746423793,28.57142857142857,693.4704641350211L0,691.8817536276629Z" title="Lyle REA" style="fill-opacity: 0.9; fill: rgb(191, 105, 137);"></path><defs><path id="path-Dan_BARRIOS-ONEILL" d="M0,703.1197900586601L28.57142857142857,704.8539930019552C57.14285714285714,706.5881959452506,114.28571428571428,710.0566018318411,171.42857142857142,714.2223680148194C228.57142857142856,718.3881341977976,285.71428571428567,723.2512606771637,342.8571428571428,722.8097663888032C399.99999999999994,722.3682721004425,457.14285714285705,716.6221570443552,514.2857142857142,716.9950859318719C571.4285714285713,717.3680148193887,628.5714285714284,723.8599876505093,685.7142857142856,734.2769115982298C742.8571428571428,744.6938355459504,799.9999999999999,759.0357106102706,857.1428571428569,763.5744056807656C914.2857142857141,768.1131007512606,971.4285714285712,762.8486158279304,1028.5714285714284,758.741381084697C1085.7142857142856,754.6341463414634,1142.8571428571427,751.6841617783266,1171.4285714285713,750.2091694967582L1200,748.7341772151899"></path><path id="path-Robbie_BUTLER" d="M0,244.66810744056804L28.57142857142857,244.99588350313877C57.14285714285714,245.32365956570953,114.28571428571428,245.97921169085106,171.42857142857142,246.9943140887105C228.57142857142856,248.00941648656993,285.71428571428567,249.38406915714728,342.8571428571428,250.36739734485954C399.99999999999994,251.3507255325718,457.14285714285705,251.94272923741897,514.2857142857142,252.4343933312751C571.4285714285713,252.9260574251312,628.5714285714284,253.31738190799626,685.7142857142856,239.54744262632497C742.8571428571428,225.77750334465367,799.9999999999999,197.846300298446,857.1428571428569,209.75326746938356C914.2857142857141,221.66023464032108,971.4285714285712,273.4053720284038,1028.5714285714284,296.5620819182875C1085.7142857142856,319.7187918081712,1142.8571428571427,314.2870741998559,1171.4285714285713,311.5712153956983L1200,308.8553565915406"></path><path id="path-Pat_CATNEY" d="M0,636.865544921272L28.57142857142857,638.3539158176392C57.14285714285714,639.8422867140064,114.28571428571428,642.8190285067408,171.42857142857142,645.9613306576103C228.57142857142856,649.1036328084799,285.71428571428567,652.4114953174848,342.8571428571428,655.6624987135947C399.99999999999994,658.9135021097046,457.14285714285705,662.1076463929196,514.2857142857142,665.5710352989606C571.4285714285713,669.0344242050015,628.5714285714284,672.7670577338686,685.7142857142856,684.046902336112C742.8571428571428,695.3267469383554,799.9999999999999,714.1538026139755,857.1428571428569,727.66453123392C914.2857142857141,741.1752598538643,971.4285714285712,749.3696614181331,1028.5714285714284,751.9918699186992C1085.7142857142856,754.6140784192652,1142.8571428571427,751.6640938561284,1171.4285714285713,750.18910157456L1200,748.7141092929917"></path><path id="path-Jonathan_CRAIG" d="M0,414.6333744983019L28.57142857142857,415.26885870124516C57.14285714285714,415.9043429041885,114.28571428571428,417.17531131007513,171.42857142857142,418.8677060821241C228.57142857142856,420.56010085417313,285.71428571428567,422.6739219923845,342.8571428571428,438.2834208088916C399.99999999999994,453.8929196253988,457.14285714285705,482.9980961202017,514.2857142857142,511.773824225584C571.4285714285713,540.5495523309663,628.5714285714284,568.9958320469281,685.7142857142856,591.8899866213852C742.8571428571428,614.7841411958423,799.9999999999999,632.1261706287949,857.1428571428569,651.4532520325203C914.2857142857141,670.7803334362457,971.4285714285712,692.092466810744,1028.5714285714284,701.236750025728C1085.7142857142856,710.3810332407121,1142.8571428571427,707.3574662961819,1171.4285714285713,705.8456828239168L1200,704.3338993516518"></path><path id="path-Peter_DYNES" d="M0,775.775702377277L28.57142857142857,776.4162035607696C57.14285714285714,777.0567047442626,114.28571428571428,778.3377071112482,171.42857142857142,778.9079705670473C228.57142857142856,779.4782340228464,285.71428571428567,779.337758567459,342.8571428571428,779.1738705361736C399.99999999999994,779.0099825048883,457.14285714285705,778.822681897705,514.2857142857142,778.5500926211794C571.4285714285713,778.2775033446537,628.5714285714284,777.9196253987856,685.7142857142856,777.0332921683646C742.8571428571428,776.1469589379437,799.9999999999999,774.7321704229701,857.1428571428569,771.392533703818C914.2857142857141,768.052896984666,971.4285714285712,762.7884120613357,1028.5714285714284,758.6811773181022C1085.7142857142856,754.5739425748687,1142.8571428571427,751.6239580117319,1171.4285714285713,750.1489657301636L1200,748.6739734485952"></path><path id="path-Paul_GIVAN" d="M0,53.822167335597385L28.57142857142857,53.91414531233918C57.14285714285714,54.006123289080975,114.28571428571428,54.19007924256457,171.42857142857142,54.49277040238758C228.57142857142856,54.795461562210576,285.71428571428567,55.216887928372984,342.8571428571428,55.539647010394184C399.99999999999994,55.862406092415384,457.14285714285705,56.08649789029537,514.2857142857142,56.38082741586909C571.4285714285713,56.67515694144282,628.5714285714284,57.03972419471029,685.7142857142856,58.17857877945866C742.8571428571428,59.317433364207034,799.9999999999999,61.23057528043631,857.1428571428569,87.78712565606665C914.2857142857141,114.343676031697,971.4285714285712,165.5436348667284,1028.5714285714284,169.65086960996192C1085.7142857142856,173.75810435319545,1142.8571428571427,130.77261500463106,1171.4285714285713,109.27987033034887L1200,87.78712565606668"></path><path id="path-Brenda_HALE" d="M0,331.1006483482556L28.57142857142857,331.6307759596583C57.14285714285714,332.160903571061,114.28571428571428,333.2211587938664,171.42857142857142,334.6593598847381C228.57142857142856,336.0975609756097,285.71428571428567,337.9137079345477,342.8571428571428,339.2432077801791C399.99999999999994,340.5727076258105,457.14285714285705,341.4155603581352,514.2857142857142,342.04602758052897C571.4285714285713,342.67649480292266,628.5714285714284,343.09457651538537,685.7142857142856,379.53123391993404C742.8571428571428,415.9678913244828,799.9999999999999,488.42312442111756,857.1428571428569,535.1128177421015C914.2857142857141,581.8025110630853,971.4285714285712,602.7266646084182,1028.5714285714284,611.605047854276C1085.7142857142856,620.4834311001338,1142.8571428571427,617.3160440465164,1171.4285714285713,615.7323505197077L1200,614.1486569928991"></path><path id="path-Brian_HIGGINSON" d="M0,759.4705155912318L28.57142857142857,761.4973757332509C57.14285714285714,763.52423587527,114.28571428571428,767.5779561593083,171.42857142857142,770.8590614387156C228.57142857142856,774.1401667181228,285.71428571428567,776.648656992899,342.8571428571428,777.8092518266953C399.99999999999994,778.9698466604918,457.14285714285705,778.7825460533086,514.2857142857142,778.5099567767829C571.4285714285713,778.2373675002572,628.5714285714284,777.8794895543891,685.7142857142856,776.9931563239682C742.8571428571428,776.1068230935473,799.9999999999999,774.6920345785736,857.1428571428569,771.3490532057219C914.2857142857141,768.0060718328702,971.4285714285712,762.7348976021406,1028.5714285714284,758.6243182052073C1085.7142857142856,754.5137388082741,1142.8571428571427,751.5637542451373,1171.4285714285713,750.0887619635689L1200,748.6137696820006"></path><path id="path-Jack_IRWIN" d="M0,770.6182463723371L28.57142857142857,772.1216682103529C57.14285714285714,773.6250900483687,114.28571428571428,776.6319337244005,171.42857142857142,778.0651178347226C228.57142857142856,779.4983019450447,285.71428571428567,779.3578264896573,342.8571428571428,779.1972831120715C399.99999999999994,779.036739734486,457.14285714285705,778.856128434702,514.2857142857142,778.5902284655758C571.4285714285713,778.3243284964494,628.5714285714284,777.9731398579809,685.7142857142856,777.0934959349593C742.8571428571428,776.2138520119378,799.9999999999999,774.8057528043635,857.1428571428569,771.4694607389112C914.2857142857141,768.1331686734588,971.4285714285712,762.8686837501286,1028.5714285714284,758.7614490068952C1085.7142857142856,754.6542142636616,1142.8571428571427,751.7042297005248,1171.4285714285713,750.2292374189565L1200,748.7542451373881"></path><path id="path-Trevor_LUNN" d="M0,570.5611299783884L28.57142857142857,571.7484820417825C57.14285714285714,572.9358341051765,114.28571428571428,575.3105382319645,171.42857142857142,578.0381033240712C228.57142857142856,580.7656684161778,285.71428571428567,583.846094473603,342.8571428571428,586.6656375424513C399.99999999999994,589.4851806112997,457.14285714285705,592.0438406915714,514.2857142857142,579.8191314191622C571.4285714285713,567.594422146753,628.5714285714284,540.586343521663,685.7142857142856,486.5283781002367C742.8571428571428,432.4704126788103,799.9999999999999,351.3625604610477,857.1428571428569,280.9810126582278C914.2857142857141,210.59946485540803,971.4285714285712,150.9442214675311,1028.5714285714284,139.2429504991252C1085.7142857142856,127.54167953071929,1142.8571428571427,163.79438098178443,1171.4285714285713,181.92073170731703L1200,200.0470824328496"></path><path id="path-Frazer_MCCAMMOND" d="M0,778.7557888237111L28.57142857142857,778.8962642790985C57.14285714285714,779.036739734486,114.28571428571428,779.3176906452609,171.42857142857142,779.3879283729545C228.57142857142856,779.4581661006483,285.71428571428567,779.3176906452609,342.8571428571428,779.1538026139755C399.99999999999994,778.9899145826901,457.14285714285705,778.8026139755068,514.2857142857142,778.5300246989812C571.4285714285713,778.2574354224554,628.5714285714284,777.8995574765872,685.7142857142856,777.0132242461664C742.8571428571428,776.1268910157455,799.9999999999999,774.7121025007717,857.1428571428569,771.36912112792C914.2857142857141,768.0261397550684,971.4285714285712,762.7549655243388,1028.5714285714284,758.6443861274056C1085.7142857142856,754.5338067304723,1142.8571428571427,751.5838221673355,1171.4285714285713,750.1088298857671L1200,748.6338376041988"></path><path id="path-Jacqui_MCGEOUGH" d="M0,724.8433158382217L28.57142857142857,726.7380621591026C57.14285714285714,728.6328084799835,114.28571428571428,732.4223011217454,171.42857142857142,736.8272100442523C228.57142857142856,741.2321189667593,285.71428571428567,746.2524441700114,342.8571428571428,751.5035504785427C399.99999999999994,756.7546567870742,457.14285714285705,762.236544200885,514.2857142857142,766.6213852011938C571.4285714285713,771.0062262015025,628.5714285714284,774.2940207883091,685.7142857142856,775.2305238242255C742.8571428571428,776.167026860142,799.9999999999999,774.7522383451682,857.1428571428569,771.4059123186169C914.2857142857141,768.0595862920653,971.4285714285712,762.7817227539363,1028.5714285714284,758.6677987033034C1085.7142857142856,754.5538746526705,1142.8571428571427,751.6038900895337,1171.4285714285713,750.1288978079654L1200,748.653905526397"></path><path id="path-Jonny_ORR" d="M0,743.5466193269527L28.57142857142857,745.494880107029C57.14285714285714,747.4431408871051,114.28571428571428,751.3396624472574,171.42857142857142,755.838221673356C228.57142857142856,760.3367808994545,285.71428571428567,765.4373777914993,342.8571428571428,769.340588659051C399.99999999999994,773.2437995266027,457.14285714285705,775.9496243696613,514.2857142857142,777.1269424719562C571.4285714285713,778.3042605742512,628.5714285714284,777.9530719357825,685.7142857142856,777.0700833590614C742.8571428571428,776.1870947823402,799.9999999999999,774.7723062673664,857.1428571428569,771.4293248945147C914.2857142857141,768.086343521663,971.4285714285712,762.8151692909335,1028.5714285714284,758.7045898940003C1085.7142857142856,754.594010497067,1142.8571428571427,751.6440259339302,1171.4285714285713,750.1690336523619L1200,748.6940413707935"></path><path id="path-Jenny_PALMER" d="M0,494.5037048471751L28.57142857142857,495.3080940619533C57.14285714285714,496.1124832767315,114.28571428571428,497.7212617062879,171.42857142857142,499.8300658639497C228.57142857142856,501.9388700216116,285.71428571428567,504.54769990737884,342.8571428571428,492.6541113512401C399.99999999999994,480.76052279510134,457.14285714285705,454.3645157970567,514.2857142857142,441.38558711536484C571.4285714285713,428.40665843367293,628.5714285714284,428.8448080683338,685.7142857142856,435.51571987238856C742.8571428571428,442.1866316764433,799.9999999999999,455.0903056498919,857.1428571428569,471.54934650612324C914.2857142857141,488.0083873623546,971.4285714285712,508.02279510136873,1028.5714285714284,499.0674848204178C1085.7142857142856,490.1121745394669,1142.8571428571427,452.18714623855095,1171.4285714285713,433.22463208809296L1200,414.262117937635"></path><path id="path-Edwin_POOTS" d="M0,154.2019141710404L28.57142857142857,154.36580220232577C57.14285714285714,154.52969023361118,114.28571428571428,154.85746629618194,171.42857142857142,155.45783163527835C228.57142857142856,156.0581969743748,285.71428571428567,156.9311515899969,342.8571428571428,157.52817227539362C399.99999999999994,158.12519296079034,457.14285714285705,158.44627971596168,514.2857142857142,158.79579602758048C571.4285714285713,159.14531233919928,628.5714285714284,159.52325820726557,685.7142857142856,194.79764845116802C742.8571428571428,230.07203869507046,799.9999999999999,300.24287331480906,857.1428571428569,344.8555366882783C914.2857142857141,389.46820006174744,971.4285714285712,408.5226921889472,1028.5714285714284,433.01893588556135C1085.7142857142856,457.5151795821755,1142.8571428571427,487.4531748482041,1171.4285714285713,502.4221724812184L1200,517.3911701142328"></path><path id="path-Lyle_REA" d="M0,678.9279098487187L28.57142857142857,680.4965524338787C57.14285714285714,682.0651950190388,114.28571428571428,685.2024801893588,171.42857142857142,688.7963105896881C228.57142857142856,692.3901409900175,285.71428571428567,696.440516620356,342.8571428571428,705.3222445199135C399.99999999999994,714.203972419471,457.14285714285705,727.9170525882474,514.2857142857142,738.2135690027786C571.4285714285713,748.5100854173099,628.5714285714284,755.390038077596,685.7142857142856,760.6612123083257C742.8571428571428,765.9323865390553,799.9999999999999,769.5947823402284,857.1428571428569,768.7903931254502C914.2857142857141,767.986003910672,971.4285714285712,762.7148296799423,1028.5714285714284,758.6042502830092C1085.7142857142856,754.493670886076,1142.8571428571427,751.5436863229393,1171.4285714285713,750.0686940413709L1200,748.5937017598025"></path></defs><text dy="0.5ex" class="label"><textPath xlink:href="#path-Dan_BARRIOS-ONEILL" startOffset="57%" text-anchor="middle" style="font-size: 11px; font-family: Arial, Helvetica; font-weight: normal;">Dan BARRIOS-ONEILL</textPath></text><text dy="0.5ex" class="label"><textPath xlink:href="#path-Robbie_BUTLER" startOffset="95%" text-anchor="end" style="font-size: 11px; font-family: Arial, Helvetica; font-weight: normal;">Robbie BUTLER</textPath></text><text dy="0.5ex" class="label"><textPath xlink:href="#path-Pat_CATNEY" startOffset="71%" text-anchor="middle" style="font-size: 11px; font-family: Arial, Helvetica; font-weight: normal;">Pat CATNEY</textPath></text><text dy="0.5ex" class="label"><textPath xlink:href="#path-Jonathan_CRAIG" startOffset="95%" text-anchor="end" style="font-size: 11px; font-family: Arial, Helvetica; font-weight: normal;">Jonathan CRAIG</textPath></text><text dy="0.5ex" class="label"><textPath xlink:href="#path-Peter_DYNES" startOffset="5%" text-anchor="start" style="font-size: 11px; font-family: Arial, Helvetica; font-weight: normal;">Peter DYNES</textPath></text><text dy="0.5ex" class="label"><textPath xlink:href="#path-Paul_GIVAN" startOffset="71%" text-anchor="middle" style="font-size: 11px; font-family: Arial, Helvetica; font-weight: normal;">Paul GIVAN</textPath></text><text dy="0.5ex" class="label"><textPath xlink:href="#path-Brenda_HALE" startOffset="95%" text-anchor="end" style="font-size: 11px; font-family: Arial, Helvetica; font-weight: normal;">Brenda HALE</textPath></text><text dy="0.5ex" class="label"><textPath xlink:href="#path-Brian_HIGGINSON" startOffset="14%" text-anchor="middle" style="font-size: 11px; font-family: Arial, Helvetica; font-weight: normal;">Brian HIGGINSON</textPath></text><text dy="0.5ex" class="label"><textPath xlink:href="#path-Jack_IRWIN" startOffset="5%" text-anchor="start" style="font-size: 11px; font-family: Arial, Helvetica; font-weight: normal;">Jack IRWIN</textPath></text><text dy="0.5ex" class="label"><textPath xlink:href="#path-Trevor_LUNN" startOffset="86%" text-anchor="middle" style="font-size: 11px; font-family: Arial, Helvetica; font-weight: normal;">Trevor LUNN</textPath></text><text dy="0.5ex" class="label"><textPath xlink:href="#path-Frazer_MCCAMMOND" startOffset="5%" text-anchor="start" style="font-size: 11px; font-family: Arial, Helvetica; font-weight: normal;">Frazer MCCAMMOND</textPath></text><text dy="0.5ex" class="label"><textPath xlink:href="#path-Jacqui_MCGEOUGH" startOffset="43%" text-anchor="middle" style="font-size: 11px; font-family: Arial, Helvetica; font-weight: normal;">Jacqui MCGEOUGH</textPath></text><text dy="0.5ex" class="label"><textPath xlink:href="#path-Jonny_ORR" startOffset="29%" text-anchor="middle" style="font-size: 11px; font-family: Arial, Helvetica; font-weight: normal;">Jonny ORR</textPath></text><text dy="0.5ex" class="label"><textPath xlink:href="#path-Jenny_PALMER" startOffset="95%" text-anchor="end" style="font-size: 11px; font-family: Arial, Helvetica; font-weight: normal;">Jenny PALMER</textPath></text><text dy="0.5ex" class="label"><textPath xlink:href="#path-Edwin_POOTS" startOffset="95%" text-anchor="end" style="font-size: 11px; font-family: Arial, Helvetica; font-weight: normal;">Edwin POOTS</textPath></text><text dy="0.5ex" class="label"><textPath xlink:href="#path-Lyle_REA" startOffset="57%" text-anchor="middle" style="font-size: 11px; font-family: Arial, Helvetica; font-weight: normal;">Lyle REA</textPath></text></g></svg>